<svg viewBox="0 0 640 400" data-background-color="#ffffff" preserveAspectRatio="xMidYMid meet" height="400" width="640" xmlns="http://www.w3.org/2000/svg" xmlns:xlink="http://www.w3.org/1999/xlink"><rect width="640" height="400" x="0" y="0" opacity="1" fill="#ffffff" data-fill-palette-color="background" id="background"></rect><g id="tight-bounds" transform="matrix(1,0,0,1,124.5038416763679,76.4)"><svg viewBox="0 0 390.9923166472642 247.2" height="247.2" width="390.9923166472642"><g><svg viewBox="0 0 390.9923166472642 247.2" height="247.2" width="390.9923166472642"><g><svg viewBox="0 0 390.9923166472642 247.2" height="247.2" width="390.9923166472642"><g><svg viewBox="0 0 390.9923166472642 247.2" height="247.2" width="390.9923166472642"><g><svg viewBox="0 0 390.9923166472642 247.2" height="247.2" width="390.9923166472642"><g transform="matrix(1,0,0,1,0,0)"><svg width="390.9923166472642" viewBox="1.5999994277954102 -37.20000076293945 203.8000030517578 124.80000305175781" height="247.2" data-palette-color="#233565"><svg></svg><svg></svg><svg></svg><g class="undefined-text-0" data-fill-palette-color="primary" id="text-0"><path d="M29.35-9.55l3 6.5c-0.4 0.333-1.14 0.783-2.22 1.35-1.087 0.567-2.413 1.067-3.98 1.5-1.567 0.433-3.3 0.633-5.2 0.6v0c-2.9-0.067-5.49-0.593-7.77-1.58-2.287-0.98-4.22-2.32-5.8-4.02-1.587-1.7-2.797-3.65-3.63-5.85-0.833-2.2-1.25-4.55-1.25-7.05v0c0-2.8 0.427-5.367 1.28-7.7 0.847-2.333 2.063-4.35 3.65-6.05 1.58-1.7 3.47-3.017 5.67-3.95 2.2-0.933 4.633-1.4 7.3-1.4v0c2.467 0 4.65 0.333 6.55 1 1.9 0.667 3.45 1.383 4.65 2.15v0l-2.85 6.85c-0.833-0.633-1.94-1.293-3.32-1.98-1.387-0.68-2.98-1.02-4.78-1.02v0c-1.4 0-2.74 0.29-4.02 0.87-1.287 0.587-2.42 1.413-3.4 2.48-0.987 1.067-1.763 2.307-2.33 3.72-0.567 1.42-0.85 2.963-0.85 4.63v0c0 1.767 0.26 3.383 0.78 4.85 0.513 1.467 1.253 2.723 2.22 3.77 0.967 1.053 2.127 1.863 3.48 2.43 1.347 0.567 2.87 0.85 4.57 0.85v0c1.967 0 3.65-0.317 5.05-0.95 1.4-0.633 2.467-1.3 3.2-2zM39.6-36.8h11.15c2.3 0 4.35 0.29 6.15 0.87 1.8 0.587 3.31 1.42 4.53 2.5 1.213 1.087 2.137 2.387 2.77 3.9 0.633 1.52 0.95 3.23 0.95 5.13v0c0 1.5-0.227 3-0.68 4.5-0.447 1.5-1.177 2.867-2.19 4.1-1.02 1.233-2.363 2.223-4.03 2.97-1.667 0.753-3.733 1.13-6.2 1.13v0h-5.2v11.7h-7.25zM46.85-18.7h5.15c1.1 0 2.017-0.183 2.75-0.55 0.733-0.367 1.31-0.833 1.73-1.4 0.413-0.567 0.713-1.16 0.9-1.78 0.18-0.613 0.27-1.187 0.27-1.72v0c0-0.4-0.057-0.91-0.17-1.53-0.12-0.613-0.363-1.237-0.73-1.87-0.367-0.633-0.923-1.167-1.67-1.6-0.753-0.433-1.763-0.65-3.03-0.65v0h-5.2zM50.15-14l8.65-0.2 9.1 14.2h-8.45zM80.45 0v-11.45l-13.55-25.35h8.95l9.5 19.1-2.15 0.15 9.35-19.25h8.95l-13.8 25.35v11.45zM107-36.8h11.15c3.033 0 5.6 0.51 7.7 1.53 2.1 1.013 3.7 2.443 4.8 4.29 1.1 1.853 1.65 4.047 1.65 6.58v0c0 1.5-0.223 3.007-0.67 4.52-0.453 1.52-1.173 2.897-2.16 4.13-0.98 1.233-2.293 2.223-3.94 2.97-1.653 0.753-3.68 1.13-6.08 1.13v0h-5.2v11.65h-7.25zM114.25-18.7h5.15c1.1 0 2.017-0.193 2.75-0.58 0.733-0.38 1.31-0.863 1.73-1.45 0.413-0.58 0.713-1.187 0.9-1.82 0.18-0.633 0.27-1.183 0.27-1.65v0c0-0.367-0.057-0.86-0.17-1.48-0.12-0.613-0.363-1.237-0.73-1.87-0.367-0.633-0.927-1.167-1.68-1.6-0.747-0.433-1.753-0.65-3.02-0.65v0h-5.2zM136.3-29.8v-7h24.8v7h-8.95v29.8h-7.25v-29.8zM164.6-18.35v0c0-2.533 0.483-4.933 1.45-7.2 0.967-2.267 2.31-4.277 4.03-6.03 1.713-1.747 3.703-3.12 5.97-4.12 2.267-1 4.7-1.5 7.3-1.5v0c2.567 0 4.983 0.5 7.25 1.5 2.267 1 4.277 2.373 6.03 4.12 1.747 1.753 3.113 3.763 4.1 6.03 0.98 2.267 1.47 4.667 1.47 7.2v0c0 2.6-0.49 5.033-1.47 7.3-0.987 2.267-2.353 4.257-4.1 5.97-1.753 1.72-3.763 3.063-6.03 4.03-2.267 0.967-4.683 1.45-7.25 1.45v0c-2.6 0-5.033-0.483-7.3-1.45-2.267-0.967-4.257-2.31-5.97-4.03-1.72-1.713-3.063-3.703-4.03-5.97-0.967-2.267-1.45-4.7-1.45-7.3zM172.1-18.35v0c0 1.633 0.293 3.157 0.88 4.57 0.58 1.42 1.397 2.67 2.45 3.75 1.047 1.087 2.263 1.93 3.65 2.53 1.38 0.6 2.887 0.9 4.52 0.9v0c1.567 0 3.027-0.3 4.38-0.9 1.347-0.6 2.52-1.443 3.52-2.53 1-1.08 1.783-2.33 2.35-3.75 0.567-1.413 0.85-2.937 0.85-4.57v0c0-1.667-0.29-3.217-0.87-4.65-0.587-1.433-1.387-2.693-2.4-3.78-1.02-1.08-2.213-1.92-3.58-2.52-1.367-0.6-2.85-0.9-4.45-0.9v0c-1.6 0-3.083 0.3-4.45 0.9-1.367 0.6-2.567 1.44-3.6 2.52-1.033 1.087-1.833 2.347-2.4 3.78-0.567 1.433-0.85 2.983-0.85 4.65z" data-fill-palette-color="primary" fill="#233565" opacity="1"></path><path d="M17.55 42.95h-12.8v-36.8h11c3.7 0 6.85 0.55 9.45 1.65 2.6 1.1 4.693 2.567 6.28 4.4 1.58 1.833 2.737 3.883 3.47 6.15 0.733 2.267 1.1 4.55 1.1 6.85v0c0 2.733-0.49 5.19-1.47 7.37-0.987 2.187-2.33 4.053-4.03 5.6-1.7 1.553-3.667 2.737-5.9 3.55-2.233 0.82-4.6 1.23-7.1 1.23zM12 13.1v22.85h4.3c1.833 0 3.5-0.243 5-0.73 1.5-0.48 2.793-1.187 3.88-2.12 1.08-0.933 1.913-2.11 2.5-3.53 0.58-1.413 0.87-3.037 0.87-4.87v0c0-2.4-0.39-4.36-1.17-5.88-0.787-1.513-1.753-2.687-2.9-3.52-1.153-0.833-2.33-1.41-3.53-1.73-1.2-0.313-2.217-0.47-3.05-0.47v0zM43.3 6.15h11.15c2.3 0 4.35 0.29 6.15 0.87 1.8 0.587 3.31 1.42 4.53 2.5 1.213 1.087 2.137 2.387 2.77 3.9 0.633 1.52 0.95 3.23 0.95 5.13v0c0 1.5-0.223 3-0.67 4.5-0.453 1.5-1.187 2.867-2.2 4.1-1.02 1.233-2.363 2.223-4.03 2.97-1.667 0.753-3.733 1.13-6.2 1.13v0h-5.2v11.7h-7.25zM50.55 24.25h5.15c1.1 0 2.017-0.183 2.75-0.55 0.733-0.367 1.31-0.833 1.73-1.4 0.413-0.567 0.713-1.16 0.9-1.78 0.18-0.613 0.27-1.187 0.27-1.72v0c0-0.4-0.057-0.91-0.17-1.53-0.12-0.613-0.363-1.237-0.73-1.87-0.367-0.633-0.923-1.167-1.67-1.6-0.753-0.433-1.763-0.65-3.03-0.65v0h-5.2zM53.85 28.95l8.65-0.2 9.1 14.2h-8.45zM77.6 42.95v-36.8h25.1v7h-17.85v7.85h15.8v7h-15.8v7.95h18.55v7zM113.9 42.95h-7.15l16.6-38.25h0.4l16.6 38.25h-8.4l-10.6-26.9 5.25-3.6zM115.85 35.75l2.25-6.1h11.05l2.55 6.1zM152.7 42.95h-7v-38.3h0.05l20.45 29-3.1-0.7 20.4-28.3h0.1v38.3h-7.25v-21.95l0.45 3.75-12.45 17.7h-0.1l-12.8-17.7 1.25-3.45z" data-fill-palette-color="accent" fill="#8bd8bc" opacity="1"></path><path d="M16.4 87.6l-14.8-38.25h8.5l7.85 23.1-1.15-0.5 6.85-17.05 3.35 9.95zM35.35 87.5l-15.3-38.15h7.2l9.05 22.35-1.3-0.2 6.75-22.15h7.8zM53.9 85.9h-7.15l16.6-38.25h0.4l16.6 38.25h-8.4l-10.6-26.9 5.25-3.6zM55.85 78.7l2.25-6.1h11.05l2.55 6.1zM85.7 85.9v-36.8h7.25v29.8h17.3v7zM117.75 85.9v-36.8h7.25v29.8h17.3v7zM149.8 85.9v-36.8h25.1v7h-17.85v7.85h15.8v7h-15.8v7.95h18.55v7zM180.6 56.1v-7h24.8v7h-8.95v29.8h-7.25v-29.8z" data-fill-palette-color="primary" fill="#233565" opacity="1"></path></g></svg></g></svg></g></svg></g></svg></g></svg></g></svg><rect width="390.9923166472642" height="247.2" fill="none" stroke="none" visibility="hidden"></rect></g><defs></defs></svg>